<?xml version="1.0" encoding="UTF-8"?>
<svg width="136.88mm" height="39.542mm" version="1.1" viewBox="0 0 136.87659 39.541672" xmlns="http://www.w3.org/2000/svg" xmlns:cc="http://creativecommons.org/ns#" xmlns:dc="http://purl.org/dc/elements/1.1/" xmlns:rdf="http://www.w3.org/1999/02/22-rdf-syntax-ns#">
<g transform="translate(-62.507 -228.37)">
<path d="m71.846 239.11h3.237q0.45889 0 0.45889 0.45888v13.142q0 0.45888-0.45889 0.45888h-1.7942q-0.45889 0-0.45889-0.45888v-10.368h-0.0868l-2.2324 7.3298q-0.13229 0.43408-0.5457 0.43408h-1.8397q-0.41341 0-0.5457-0.43408l-2.2738-7.3505h-0.0868v10.389q0 0.26044-0.091 0.35966-0.0868 0.0992-0.36793 0.0992h-1.7942q-0.45888 0-0.45888-0.45888v-13.142q0-0.45888 0.45888-0.45888h3.2577q0.30592 0 0.41754 0.30592l2.3151 7.7184h0.1323l2.3399-7.7184q0.0662-0.30592 0.41755-0.30592zm10.234 14.06h-0.52504q-1.7281 0-2.6706-0.91777-0.93845-0.91778-0.93845-2.6458v-4.0266q0-1.7281 0.93845-2.6458 0.94257-0.91777 2.6706-0.91777h5.0519q0.47956 0 0.47956 0.45889v10.236q0 0.45888-0.47956 0.45888h-1.8355q-0.46303 0-0.46303-0.45888v-0.72348h-0.0868q-0.23978 0.59118-0.85163 0.88884-0.61185 0.29352-1.2898 0.29352zm2.2283-4.068v-4.44q0-0.23977-0.26044-0.23977h-2.0547q-0.7028 0-0.98805 0.29765-0.28112 0.29352-0.28112 0.99219v3.762q0 0.69867 0.28112 0.99633 0.28525 0.29352 0.98805 0.29352h0.80615q1.509 0 1.509-1.6619zm5.4249-4.6798h-0.8723q-0.26458 0-0.3638-0.0868-0.0992-0.0868-0.0992-0.3514v-1.509q0-0.45889 0.46302-0.45889h0.8723q0.23978 0 0.23978-0.23978v-2.0795q0-0.45888 0.48369-0.45888h1.8356q0.45888 0 0.45888 0.45888v2.0795q0 0.23978 0.26459 0.23978h1.7032q0.45889 0 0.45889 0.45889v1.509q0 0.23978-0.0992 0.339-0.0951 0.0992-0.35967 0.0992h-1.7032q-0.26459 0-0.26459 0.23977v4.8328q0 0.678 0.30593 0.97566 0.30592 0.29352 1.0087 0.29352h0.8723q0.45889 0 0.45889 0.45888v1.509q0 0.23977-0.0992 0.33899-0.0951 0.0992-0.35967 0.0992h-1.3353q-1.7239 0-2.6789-0.91777-0.95084-0.91778-0.95084-2.6252v-4.9651q0-0.23977-0.23978-0.23977zm14.587 6.8006v1.509q0 0.23977-0.0992 0.33899-0.0951 0.0992-0.35967 0.0992h-3.2577q-1.7281 0-2.6706-0.91777-0.93845-0.91778-0.93845-2.6458v-4.0266q0-1.7281 0.93845-2.6458 0.94257-0.91777 2.6706-0.91777h3.2577q0.45888 0 0.45888 0.45889v1.509q0 0.23978-0.0992 0.339-0.0951 0.0992-0.35967 0.0992h-2.8195q-0.67799 0-0.97565 0.29765-0.29352 0.29352-0.29352 0.99219v3.762q0 0.69867 0.29352 0.99633 0.29766 0.29352 0.97565 0.29352h2.8195q0.45888 0 0.45888 0.45888zm4.201 1.9472h-1.8604q-0.45889 0-0.45889-0.45888v-14.457q0-0.45889 0.45889-0.45889h1.8604q0.45889 0 0.45889 0.45889v4.9444h0.0868q0.47956-1.1824 2.1415-1.1824h0.7028q3.4313 0 3.4313 3.5636v7.1314q0 0.45888-0.47956 0.45888h-1.8397q-0.45889 0-0.45889-0.45888v-6.9991q0-0.69867-0.29352-0.99219-0.29352-0.29765-0.99632-0.29765h-0.78548q-1.509 0-1.509 1.6619v6.627q0 0.45888-0.45889 0.45888zm13.406-5.8622h-4.1548q-0.45889 0-0.45889-0.45889v-1.2898q0-0.47956 0.45889-0.47956h4.1548q0.45889 0 0.45889 0.47956v1.2898q0 0.45889-0.45889 0.45889zm7.1085 5.8622h-1.8397q-0.47955 0-0.47955-0.45888v-10.955q0-0.24391-0.23978-0.24391h-2.4929q-0.46302 0-0.46302-0.45889v-1.4842q0-0.45888 0.46302-0.45888h8.2641q0.45889 0 0.45889 0.45888v1.4842q0 0.45889-0.45889 0.45889h-2.4929q-0.26045 0-0.26045 0.24391v10.955q0 0.45888-0.45889 0.45888zm10.453 0h-1.9472q-1.7281 0-2.6706-0.91777-0.93845-0.91778-0.93845-2.6458v-4.0266q0-1.7281 0.93845-2.6458 0.94258-0.91777 2.6706-0.91777h1.9472q1.7033 0 2.6541 0.93018 0.95498 0.93017 0.95498 2.6334v4.0266q0 1.7033-0.95498 2.6334-0.95085 0.93017-2.6541 0.93017zm-1.5338-2.3854h1.1162q0.69866 0 0.99219-0.28112 0.29765-0.28526 0.29765-0.98392v-3.8489q0-0.7028-0.29765-0.98392-0.29353-0.28525-0.99219-0.28525h-1.1162q-0.69867 0-0.98392 0.28525-0.28112 0.28112-0.28112 0.98392v3.8489q0 0.69866 0.28112 0.98392 0.28525 0.28112 0.98392 0.28112zm9.143 6.0813h-1.4015q-0.43408 0-0.43408-0.47956v-1.4676q0-0.47955 0.43408-0.47955h0.46302q1.3767 0 1.8686-0.38448 0.49196-0.38034 0.75241-1.4759h-1.1576q-0.41754 0-0.5457-0.45888l-2.559-9.6449q-0.13229-0.45889 0.32659-0.45889h1.9472q0.43822 0 0.54571 0.45889l1.881 8.0698h0.0868l1.8604-8.0698q0.0868-0.45889 0.5457-0.45889h1.8397q0.5457 0 0.43408 0.47956l-2.6665 10.674q-0.47956 1.8149-1.4883 2.7533-1.0046 0.94258-2.7326 0.94258z"/>
<path d="m159.84 228.37h39.542v39.542h-39.542z" fill="#f7df1e" fill-rule="evenodd"/>
<path d="m63.784 265.71h-0.80201q-0.21498 0-0.21498-0.21497v-7.7349q0-0.21498 0.21498-0.21498h3.0262q0.92604 0 1.4469 0.51677 0.5209 0.51263 0.5209 1.4511v1.3188q0 0.93017-0.5209 1.4511-0.5209 0.5209-1.4469 0.5209h-1.8562q-0.15296 0-0.15296 0.12402v2.5673q0 0.21497-0.21498 0.21497zm0.35554-4.0018h1.6908q0.90124 0 0.90124-0.93845v-1.2072q0-0.93844-0.90124-0.93844h-1.6908q-0.14056 0-0.14056 0.12815v2.8319q0 0.12403 0.14056 0.12403zm7.5448 4.0018h-0.4961q-0.93844 0-1.4552-0.5209-0.51263-0.5209-0.51263-1.4469v-2.5425q0-0.93844 0.51263-1.4511 0.51676-0.51677 1.4552-0.51677h2.8443q0.22738 0 0.22738 0.21911v6.0441q0 0.21497-0.22738 0.21497h-0.79788q-0.21911 0-0.21911-0.21497v-0.45889h-0.0496q-0.30592 0.67386-1.2816 0.67386zm1.3312-2.158v-3.113q0-0.12815-0.13642-0.12815h-1.5131q-0.91364 0-0.91364 0.94258v2.4391q0 0.93845 0.91364 0.93845h0.60772q1.0418 0 1.0418-1.079zm3.0256-3.2411h-0.61185q-0.12815 0-0.17363-0.0413-0.0413-0.0455-0.0413-0.16124v-0.65732q0-0.21911 0.21497-0.21911h0.61185q0.12403 0 0.12403-0.12402v-1.1452q0-0.21497 0.23151-0.21497h0.79788q0.21498 0 0.21498 0.21497v1.1452q0 0.12402 0.14056 0.12402h1.1824q0.22738 0 0.22738 0.21911v0.65732q0 0.20258-0.22738 0.20258h-1.1824q-0.14056 0-0.14056 0.12815v3.266q0 0.92605 0.95498 0.92605h0.49609q0.22738 0 0.22738 0.21497v0.66146q0 0.20257-0.22738 0.20257h-0.68626q-0.94258 0-1.4759-0.5085-0.5333-0.50849-0.5333-1.4345v-3.328q0-0.12815-0.12403-0.12815zm4.4577 0h-0.61184q-0.12816 0-0.17364-0.0413-0.0413-0.0455-0.0413-0.16124v-0.65732q0-0.21911 0.21498-0.21911h0.61184q0.12403 0 0.12403-0.12402v-1.1452q0-0.21497 0.23151-0.21497h0.79788q0.21498 0 0.21498 0.21497v1.1452q0 0.12402 0.14056 0.12402h1.1824q0.22738 0 0.22738 0.21911v0.65732q0 0.20258-0.22738 0.20258h-1.1824q-0.14056 0-0.14056 0.12815v3.266q0 0.92605 0.95498 0.92605h0.49609q0.22738 0 0.22738 0.21497v0.66146q0 0.20257-0.22738 0.20257h-0.68626q-0.94258 0-1.4759-0.5085-0.5333-0.50849-0.5333-1.4345v-3.328q0-0.12815-0.12403-0.12815zm8.8523 5.3992h-2.745q-0.93845 0-1.4552-0.5209-0.51263-0.5209-0.51263-1.4469v-2.5425q0-0.93844 0.51263-1.4511 0.51676-0.51677 1.4552-0.51677h1.0418q0.93845 0 1.4594 0.51677 0.52089 0.51263 0.52089 1.4511v1.6164q0 0.22738-0.22737 0.22738h-3.4024q-0.14056 0-0.14056 0.12815v0.54571q0 0.92604 0.92604 0.92604h2.5673q0.22737 0 0.22737 0.22737v0.63666q0 0.20257-0.22737 0.20257zm-3.3528-3.5305h2.2696q0.12816 0 0.12816-0.12816v-0.81029q0-0.48369-0.21498-0.70693-0.21497-0.22324-0.69866-0.22324h-0.69867q-0.48369 0-0.69866 0.22324t-0.21497 0.70693v0.81029q0 0.12816 0.12815 0.12816zm6.042 3.5305h-0.79789q-0.21497 0-0.21497-0.21497v-6.0441q0-0.21911 0.21497-0.21911h0.79789q0.21911 0 0.21911 0.21911v0.47956h0.0496q0.12816-0.31833 0.48782-0.5085 0.3638-0.19017 0.80616-0.19017h0.47129q0.21497 0 0.21497 0.21911v0.65732q0 0.24392-0.21497 0.20258h-0.76482q-1.0501 0-1.0501 1.1576v4.0266q0 0.21497-0.21911 0.21497zm4.2545 0h-0.79789q-0.21497 0-0.21497-0.21497v-6.0441q0-0.21911 0.21497-0.21911h0.79789q0.2191 0 0.2191 0.21911v0.45475h0.0496q0.30593-0.67386 1.2816-0.67386h0.5581q0.93018 0 1.4221 0.5085 0.49609 0.50849 0.49609 1.4593v4.2954q0 0.21497-0.22737 0.21497h-0.80202q-0.21498 0-0.21498-0.21497v-4.2416q0-0.94258-0.92604-0.94258h-0.59944q-1.0377 0-1.0377 1.0831v4.101q0 0.21497-0.2191 0.21497zm14.289-8.1649h1.4221q0.21497 0 0.21497 0.21498v7.7349q0 0.21497-0.21497 0.21497h-0.78548q-0.21911 0-0.21911-0.21497v-6.4162h-0.0496l-1.6495 4.6509q-0.0786 0.20257-0.28112 0.20257h-0.81442q-0.19017 0-0.26458-0.20257l-1.6909-4.6633h-0.0496v6.4286q0 0.12402-0.0455 0.16949-0.0413 0.0455-0.1695 0.0455h-0.77722q-0.21497 0-0.21497-0.21497v-7.7349q0-0.21498 0.21497-0.21498h1.4263q0.13642 0 0.20257 0.13643l1.7405 4.9031h0.062l1.7529-4.9031q0.0248-0.13643 0.19017-0.13643zm5.703 8.1649h-0.49609q-0.93845 0-1.4552-0.5209-0.51263-0.5209-0.51263-1.4469v-2.5425q0-0.93844 0.51263-1.4511 0.51676-0.51677 1.4552-0.51677h2.8443q0.22737 0 0.22737 0.21911v6.0441q0 0.21497-0.22737 0.21497h-0.79789q-0.2191 0-0.2191-0.21497v-0.45889h-0.0496q-0.30593 0.67386-1.2816 0.67386zm1.3312-2.158v-3.113q0-0.12815-0.13643-0.12815h-1.5131q-0.91363 0-0.91363 0.94258v2.4391q0 0.93845 0.91363 0.93845h0.60772q1.0418 0 1.0418-1.079zm3.0256-3.2411h-0.61185q-0.12816 0-0.17363-0.0413-0.0413-0.0455-0.0413-0.16124v-0.65732q0-0.21911 0.21497-0.21911h0.61185q0.12402 0 0.12402-0.12402v-1.1452q0-0.21497 0.23151-0.21497h0.79789q0.21497 0 0.21497 0.21497v1.1452q0 0.12402 0.14056 0.12402h1.1824q0.22737 0 0.22737 0.21911v0.65732q0 0.20258-0.22737 0.20258h-1.1824q-0.14056 0-0.14056 0.12815v3.266q0 0.92605 0.95498 0.92605h0.49609q0.22738 0 0.22738 0.21497v0.66146q0 0.20257-0.22738 0.20257h-0.68626q-0.94258 0-1.4759-0.5085-0.5333-0.50849-0.5333-1.4345v-3.328q0-0.12815-0.12402-0.12815zm8.2032 4.5351v0.66146q0 0.20257-0.22737 0.20257h-1.8686q-0.93844 0-1.4552-0.5209-0.51263-0.5209-0.51263-1.4469v-2.5425q0-0.93844 0.51263-1.4511 0.51676-0.51677 1.4552-0.51677h1.8686q0.22737 0 0.22737 0.21911v0.65732q0 0.20258-0.22737 0.20258h-1.6908q-0.91364 0-0.91364 0.94258v2.4391q0 0.93845 0.91364 0.93845h1.6908q0.22737 0 0.22737 0.21497zm2.2207 0.86403h-0.79788q-0.21498 0-0.21498-0.21497v-8.4956q0-0.21911 0.21498-0.21911h0.79788q0.21911 0 0.21911 0.21911v2.9063h0.0496q0.30592-0.67386 1.2816-0.67386h0.55811q0.93018 0 1.4221 0.5085 0.4961 0.50849 0.4961 1.4593v4.2954q0 0.21497-0.22738 0.21497h-0.80202q-0.21497 0-0.21497-0.21497v-4.2416q0-0.94258-0.92604-0.94258h-0.59945q-1.0377 0-1.0377 1.0831v4.101q0 0.21497-0.21911 0.21497zm5.6151-7.5572v-1.1534q0-0.20671 0.20258-0.20671h0.82682q0.20257 0 0.20257 0.20671v1.1534q0 0.21497-0.20257 0.21497h-0.82682q-0.20258 0-0.20258-0.21497zm0 7.3422v-6.0441q0-0.21911 0.20258-0.21911h0.81442q0.21497 0 0.21497 0.21911v6.0441q0 0.12402-0.0455 0.16949-0.0455 0.0455-0.1571 0.0455h-0.81442q-0.21498 0-0.21498-0.21497zm3.91 0.21497h-0.79789q-0.21497 0-0.21497-0.21497v-6.0441q0-0.21911 0.21497-0.21911h0.79789q0.2191 0 0.2191 0.21911v0.45475h0.0496q0.30593-0.67386 1.2816-0.67386h0.5581q0.93018 0 1.4221 0.5085 0.49609 0.50849 0.49609 1.4593v4.2954q0 0.21497-0.22737 0.21497h-0.80202q-0.21497 0-0.21497-0.21497v-4.2416q0-0.94258-0.92605-0.94258h-0.59944q-1.0377 0-1.0377 1.0831v4.101q0 0.21497-0.2191 0.21497zm7.9136-0.31833h-0.57051q-0.91364 0-1.4056-0.51263-0.48783-0.51676-0.48783-1.4552v-2.2242q0-0.93844 0.5209-1.4511 0.5209-0.51677 1.4469-0.51677h2.8443q0.23151 0 0.23151 0.21911v6.2839q0 0.92604-0.52916 1.4387-0.52503 0.51676-1.4552 0.51676h-2.3854q-0.21498 0-0.21498-0.20257v-0.66146q0-0.21497 0.21498-0.21497h2.1952q0.92604 0 0.92604-0.93845v-0.96738h-0.0496q-0.31832 0.68626-1.2816 0.68626zm1.3312-2.158v-2.7947q0-0.12815-0.13642-0.12815h-1.5131q-0.90124 0-0.90124 0.94258v2.1084q0 0.93845 0.90124 0.93845h0.61185q1.0377 0 1.0377-1.0666z"/>
<path d="m187.4 248.76c0-2.1401 1.7349-3.875 3.875-3.875 1.0277 0 2.0133 0.40826 2.74 1.135 0.7267 0.72671 1.135 1.7123 1.135 2.74 0 2.1401-1.7349 3.875-3.875 3.875s-3.875-1.7349-3.875-3.875z" fill-rule="evenodd"/>
<path d="m187.4 257.05h7.75v7.75h-7.75z" fill-rule="evenodd"/>
<g transform="matrix(.26458 0 0 .26458 23.895 204.39)" fill="none" stroke-linecap="square" stroke-miterlimit="10">
<path d="m570.82 228.34 16.929-29.291 16.929 29.291z" fill="#000" fill-rule="evenodd"/>
</g>
<path d="m175.33 247.84 4.075-2.9602 4.075 2.9602-1.5565 4.7898h-5.037z" fill-rule="evenodd"/>
</g>
</svg>
